<svg xmlns="http://www.w3.org/2000/svg" width="66" height="72"><path fill="#213289" fill-rule="evenodd" d="m13.772 49.373.915 1.237c.618.847 1.317 1.688 2.016 2.51-5.832 1.41-9.567 3.587-9.567 6.03 0 4.254 11.31 7.705 25.268 7.705s25.267-3.45 25.267-7.705c0-2.27-3.24-4.329-8.385-5.726a49 49 0 0 0 2.856-3.896c8.04 2.275 13.203 5.912 13.203 10.011C65.345 66.422 50.72 72 32.675 72 14.632 72 0 66.422 0 59.54c0-4.2 5.436-7.91 13.772-10.167M33.603.001A21.58 21.58 0 0 1 51.42 10.316c3.444 5.67 4.186 12.906 2.678 20.233a44.5 44.5 0 0 1-10.252 20.137l-.44.487v.018a42.8 42.8 0 0 1-9.344 7.736 1.32 1.32 0 0 1-1.503.044A52.6 52.6 0 0 1 19.572 47.37c-4.73-5.937-7.742-12.529-8.763-18.88s-.068-12.627 3.136-17.661a21.6 21.6 0 0 1 4.842-5.368C23.3 1.856 28.446-.036 33.603.001m-.977 11.446A11.05 11.05 0 0 0 21.57 22.498a11.057 11.057 0 1 0 11.057-11.05"/></svg>