<svg xmlns="http://www.w3.org/2000/svg" width="51" height="52"><path fill="#213289" fill-rule="nonzero" d="M28.684 13.583a2.1 2.1 0 0 1-.782-.237 2.1 2.1 0 0 1-.623-.518 2 2 0 0 1-.35-.667 2.1 2.1 0 0 1-.089-.737v-.167a2.05 2.05 0 0 1 .746-1.317c.2-.159.426-.28.668-.36.237-.078.488-.108.737-.087h.15q1.203.13 2.378.43 1.124.281 2.186.746a11.9 11.9 0 0 1 3.678 2.484 12 12 0 0 1 2.51 3.678c.31.697.56 1.42.746 2.16.193.79.33 1.594.413 2.404a2.05 2.05 0 0 1-.448 1.519c-.17.206-.378.376-.614.5a2.05 2.05 0 0 1-.773.246 2.2 2.2 0 0 1-.764-.079 2.2 2.2 0 0 1-.72-.377 2.2 2.2 0 0 1-.5-.606 2.1 2.1 0 0 1-.272-.808 13 13 0 0 0-.298-1.755 9.5 9.5 0 0 0-.527-1.554 8 8 0 0 0-1.659-2.467 7.7 7.7 0 0 0-1.132-.921 8.4 8.4 0 0 0-1.334-.72q-.751-.324-1.545-.527a12.5 12.5 0 0 0-1.756-.307zm2.194-9.471h-.123a2 2 0 0 1-.72-.22 2.2 2.2 0 0 1-.579-.456 2.1 2.1 0 0 1-.395-.694 1.9 1.9 0 0 1-.114-.78v-.159c.027-.248.099-.488.21-.71q.174-.334.448-.589c.199-.17.428-.302.676-.386a2 2 0 0 1 .8-.114c1.401.082 2.795.27 4.169.561 1.274.268 2.522.647 3.73 1.133a18 18 0 0 1 3.274 1.755 16.7 16.7 0 0 1 4.96 5.118 18.5 18.5 0 0 1 1.615 3.327 22.7 22.7 0 0 1 1.01 3.765c.243 1.384.384 2.783.42 4.187v.08c.008.261-.04.521-.14.763a2.09 2.09 0 0 1-1.852 1.29h-.096a2.1 2.1 0 0 1-.747-.149 2 2 0 0 1-1.123-1.07 2 2 0 0 1-.184-.79 24 24 0 0 0-.343-3.512c-.18-1.048-.45-2.08-.807-3.08-.327-.918-.745-1.8-1.247-2.634a12.2 12.2 0 0 0-1.685-2.177 12.4 12.4 0 0 0-2.116-1.756c-.81-.53-1.672-.976-2.572-1.334a17 17 0 0 0-3.002-.878 24.5 24.5 0 0 0-3.44-.456zM13.322 23.616a40.4 40.4 0 0 0 5.943 8.322 34 34 0 0 0 9.41 6.943c.26.117.557.117.816 0 .43-.194.816-.475 1.133-.825q.571-.578 1.07-1.22c1.51-1.993 3.38-4.46 6.022-3.23l.167.087 8.778 5.074.088.052a4 4 0 0 1 1.659 3.433 9.2 9.2 0 0 1-1.3 4.388 8.9 8.9 0 0 1-4.24 3.749 19.2 19.2 0 0 1-5.266 1.422 17.56 17.56 0 0 1-7.988-.667 35.3 35.3 0 0 1-7.97-3.898l-.21-.14c-1.309-.808-2.713-1.686-4.1-2.713a51.3 51.3 0 0 1-13.58-15.405C.938 23.888-.633 18.385.245 13.144A11.4 11.4 0 0 1 4.087 5.92a10.36 10.36 0 0 1 7.672-2.045c.37.029.7.244.878.57l5.653 9.55c.772.883.957 2.136.474 3.204a6.25 6.25 0 0 1-2.16 2.423c-.307.255-.667.518-1.044.799-1.273.878-2.704 1.975-2.212 3.221z"/></svg>